<?xml version="1.0" encoding="UTF-8" standalone="no"?>
<svg
   height="36"
   width="37.4086"
   version="1.1"
   id="svg4"
   sodipodi:docname="science_FILL0_wght400_GRAD0_opsz48.svg"
   xml:space="preserve"
   inkscape:version="1.2.1 (9c6d41e410, 2022-07-14, custom)"
   xmlns:inkscape="http://www.inkscape.org/namespaces/inkscape"
   xmlns:sodipodi="http://sodipodi.sourceforge.net/DTD/sodipodi-0.dtd"
   xmlns="http://www.w3.org/2000/svg"
   xmlns:svg="http://www.w3.org/2000/svg"><defs
     id="defs8" /><sodipodi:namedview
     id="namedview6"
     pagecolor="#ffffff"
     bordercolor="#000000"
     borderopacity="0.25"
     inkscape:showpageshadow="2"
     inkscape:pageopacity="0.0"
     inkscape:pagecheckerboard="0"
     inkscape:deskcolor="#d1d1d1"
     showgrid="false"
     inkscape:zoom="5.8541667"
     inkscape:cx="15.288256"
     inkscape:cy="19.985765"
     inkscape:window-width="1364"
     inkscape:window-height="744"
     inkscape:window-x="0"
     inkscape:window-y="0"
     inkscape:window-maximized="1"
     inkscape:current-layer="svg4" /><path
     d="m 3.3043009,36 q -2.1,0 -2.97500002,-1.95 -0.875,-1.95 0.575,-3.55 L 13.304301,16.5 V 3 h -2.6 q -0.65,0 -1.0750001,-0.425 -0.425,-0.425 -0.425,-1.075 0,-0.65 0.425,-1.075 Q 10.054301,0 10.704301,0 h 16 q 0.65,0 1.075,0.425 0.425,0.425 0.425,1.075 0,0.65 -0.425,1.075 -0.425,0.425 -1.075,0.425 h -2.6 v 13.5 l 12.4,14 q 1.45,1.6 0.575,3.55 -0.875,1.95 -2.975,1.95 z m -0.6,-3 H 34.704301 l -13.6,-15.4 V 3 h -4.8 V 17.6 Z M 18.604301,18 Z"
     id="path2" /><path
     d="m 14.702538,24.293509 h 2.755928 c 0.138426,0 0.251684,-0.04405 0.339773,-0.132126 0.08808,-0.08808 0.132126,-0.201342 0.132126,-0.339772 0,-0.138426 -0.04405,-0.251683 -0.132126,-0.339772 -0.08808,-0.08808 -0.201342,-0.132125 -0.339773,-0.132125 h -2.755928 c -0.138425,0 -0.251682,0.04405 -0.339771,0.132125 -0.08808,0.08808 -0.132126,0.201341 -0.132126,0.339772 0,0.138425 0.04405,0.251683 0.132126,0.339772 0.08808,0.08808 0.20134,0.132126 0.339771,0.132126 z m 5.436352,6.455667 h 2.850308 c 0.138425,0 0.251684,-0.04405 0.339772,-0.132126 0.08808,-0.08808 0.132126,-0.201341 0.132126,-0.339771 0,-0.138426 -0.04405,-0.248538 -0.132126,-0.330335 -0.08808,-0.08179 -0.201341,-0.122699 -0.339772,-0.122699 H 20.13889 c -0.138426,0 -0.251683,0.0409 -0.339772,0.122699 -0.08808,0.08179 -0.132125,0.191911 -0.132125,0.330335 0,0.138425 0.04405,0.251682 0.132125,0.339771 0.08808,0.08808 0.201341,0.132126 0.339772,0.132126 z m 0,-2.019757 h 2.850308 c 0.138425,0 0.251684,-0.04405 0.339772,-0.132125 0.08808,-0.08808 0.132126,-0.201342 0.132126,-0.339773 0,-0.138425 -0.04405,-0.251682 -0.132126,-0.339771 -0.08808,-0.08808 -0.201341,-0.132126 -0.339772,-0.132126 H 20.13889 c -0.138426,0 -0.251683,0.04405 -0.339772,0.132126 -0.08808,0.08808 -0.132125,0.20134 -0.132125,0.339771 0,0.138425 0.04405,0.251684 0.132125,0.339773 0.08808,0.08808 0.201341,0.132125 0.339772,0.132125 z m -4.058388,2.680425 c 0.138425,0 0.251683,-0.04405 0.339772,-0.132126 0.08808,-0.08808 0.132126,-0.201342 0.132126,-0.339772 v -1.189202 h 1.1892 c 0.138425,0 0.251684,-0.04405 0.339773,-0.132126 0.08808,-0.08808 0.132126,-0.20134 0.132126,-0.33977 0,-0.138425 -0.04405,-0.251683 -0.132126,-0.339772 -0.08808,-0.08808 -0.201342,-0.132126 -0.339773,-0.132126 h -1.1892 v -1.189201 c 0,-0.138426 -0.04405,-0.251684 -0.132126,-0.339773 -0.08808,-0.08808 -0.201342,-0.132126 -0.339772,-0.132126 -0.138426,0 -0.251683,0.04405 -0.339772,0.132126 -0.08808,0.08808 -0.132125,0.201342 -0.132125,0.339773 v 1.189201 h -1.189201 c -0.138425,0 -0.251683,0.04405 -0.339772,0.132126 -0.08808,0.08808 -0.132126,0.201342 -0.132126,0.339772 0,0.138426 0.04405,0.251681 0.132126,0.33977 0.08808,0.08808 0.201342,0.132126 0.339772,0.132126 h 1.189201 v 1.189202 c 0,0.138425 0.04405,0.251683 0.132125,0.339772 0.08808,0.08808 0.201341,0.132126 0.339772,0.132126 z m 3.94513,-6.09702 c 0.100676,0.100676 0.213926,0.151004 0.339772,0.151004 0.125841,0 0.239099,-0.05033 0.339772,-0.151004 l 0.811677,-0.811678 0.830553,0.830555 c 0.100676,0.100676 0.210781,0.147858 0.330335,0.141566 0.119557,-0.0064 0.229661,-0.05985 0.330334,-0.160445 0.100675,-0.100676 0.151004,-0.213928 0.151004,-0.339773 0,-0.125841 -0.05033,-0.239098 -0.151004,-0.339773 L 22.196398,23.8216 23.026952,22.991046 c 0.100675,-0.100675 0.147859,-0.210781 0.141567,-0.330335 -0.0064,-0.119543 -0.05985,-0.229659 -0.160448,-0.330333 -0.100676,-0.100662 -0.213928,-0.151004 -0.339773,-0.151004 -0.125841,0 -0.239098,0.05033 -0.339771,0.151004 l -0.811678,0.811676 -0.830554,-0.830553 c -0.100675,-0.100676 -0.210781,-0.147859 -0.330333,-0.141568 -0.119557,0.0064 -0.229661,0.05985 -0.330335,0.16045 -0.100676,0.100676 -0.151004,0.213926 -0.151004,0.339772 0,0.125841 0.05033,0.239098 0.151004,0.339771 l 0.811679,0.811678 -0.830556,0.830553 c -0.100662,0.100662 -0.147857,0.210781 -0.141566,0.330335 0.0064,0.119543 0.05985,0.229659 0.160447,0.330334 z"
     id="path133"
     style="stroke-width:0.377524"
     sodipodi:nodetypes="sssssssssssssssssssssssssssssssssssscssssscssssscssssscsssssccsccsccsccsccsccsccscss" /></svg>
